<svg xmlns="http://www.w3.org/2000/svg" version="1.1" xmlns:xlink="http://www.w3.org/1999/xlink" xmlns:svgjs="http://svgjs.dev/svgjs" width="2000" height="474" viewBox="0 0 2000 474"><g transform="matrix(1,0,0,1,-1.2121212121210192,-0.02449689724687687)"><svg viewBox="0 0 396 94" data-background-color="#6936f5" preserveAspectRatio="xMidYMid meet" height="474" width="2000" xmlns="http://www.w3.org/2000/svg" xmlns:xlink="http://www.w3.org/1999/xlink"><g id="tight-bounds" transform="matrix(1,0,0,1,0.23999999999995225,0.004858034475120121)"><svg viewBox="0 0 395.52 93.99019310106729" height="93.99019310106729" width="395.52"><g><svg viewBox="0 0 558.4562255233283 132.70987175220168" height="93.99019310106729" width="395.52"><g transform="matrix(1,0,0,1,162.93622552332832,2.336666820528407)"><svg viewBox="0 0 395.52 128.03653811114486" height="128.03653811114486" width="395.52"><g><svg viewBox="0 0 395.52 128.03653811114486" height="128.03653811114486" width="395.52"><g><svg viewBox="0 0 395.52 128.03653811114486" height="128.03653811114486" width="395.52"><g transform="matrix(1,0,0,1,0,0)"><svg width="395.52" viewBox="2.3 -40.05 164.64 53.3" height="128.03653811114486" data-palette-color="#ffffff"><path d="M7.4-30.8Q5.15-30.8 3.73-32.13 2.3-33.45 2.3-35.4L2.3-35.4Q2.3-37.4 3.73-38.73 5.15-40.05 7.4-40.05L7.4-40.05Q9.6-40.05 11.03-38.73 12.45-37.4 12.45-35.4L12.45-35.4Q12.45-33.45 11.03-32.13 9.6-30.8 7.4-30.8L7.4-30.8ZM3.1-27.9L11.65-27.9 11.65 0 3.1 0 3.1-27.9ZM16.15-13.95Q16.15-18.3 17.92-21.55 19.7-24.8 22.87-26.55 26.05-28.3 30.15-28.3L30.15-28.3Q35.4-28.3 38.92-25.55 42.45-22.8 43.55-17.8L43.55-17.8 34.45-17.8Q33.3-21 30-21L30-21Q27.65-21 26.25-19.18 24.85-17.35 24.85-13.95L24.85-13.95Q24.85-10.55 26.25-8.72 27.65-6.9 30-6.9L30-6.9Q33.3-6.9 34.45-10.1L34.45-10.1 43.55-10.1Q42.45-5.2 38.9-2.4 35.35 0.4 30.15 0.4L30.15 0.4Q26.05 0.4 22.87-1.35 19.7-3.1 17.92-6.35 16.15-9.6 16.15-13.95L16.15-13.95ZM60.8 0.4Q56.7 0.4 53.42-1.35 50.15-3.1 48.27-6.35 46.4-9.6 46.4-13.95L46.4-13.95Q46.4-18.25 48.3-21.53 50.2-24.8 53.5-26.55 56.8-28.3 60.9-28.3L60.9-28.3Q65-28.3 68.3-26.55 71.59-24.8 73.5-21.53 75.4-18.25 75.4-13.95L75.4-13.95Q75.4-9.65 73.47-6.38 71.55-3.1 68.22-1.35 64.9 0.4 60.8 0.4L60.8 0.4ZM60.8-7Q63.25-7 64.97-8.8 66.7-10.6 66.7-13.95L66.7-13.95Q66.7-17.3 65.02-19.1 63.35-20.9 60.9-20.9L60.9-20.9Q58.4-20.9 56.75-19.13 55.1-17.35 55.1-13.95L55.1-13.95Q55.1-10.6 56.72-8.8 58.35-7 60.8-7L60.8-7ZM96.94-28.2Q101.84-28.2 104.77-25.03 107.69-21.85 107.69-16.3L107.69-16.3 107.69 0 99.19 0 99.19-15.15Q99.19-17.95 97.74-19.5 96.29-21.05 93.84-21.05L93.84-21.05Q91.39-21.05 89.94-19.5 88.49-17.95 88.49-15.15L88.49-15.15 88.49 0 79.94 0 79.94-27.9 88.49-27.9 88.49-24.2Q89.79-26.05 91.99-27.13 94.19-28.2 96.94-28.2L96.94-28.2ZM133.49-21.1L121.64-7.05 133.74-7.05 133.74 0 112.09 0 112.09-6.8 123.69-20.85 112.19-20.85 112.19-27.9 133.49-27.9 133.49-21.1ZM157.69-27.9L166.94-27.9 149.44 13.25 140.24 13.25 146.64-0.95 135.29-27.9 144.84-27.9 151.29-10.45 157.69-27.9Z" opacity="1" transform="matrix(1,0,0,1,0,0)" fill="#000000" class="undefined-text-0" data-fill-palette-color="primary" id="text-0"></path></svg></g></svg></g></svg></g></svg></g><g><svg viewBox="0 0 132.70987175220168 132.70987175220168" height="132.70987175220168" width="132.70987175220168"><g><svg></svg></g><g id="icon-0"><svg viewBox="0 0 132.70987175220168 132.70987175220168" height="132.70987175220168" width="132.70987175220168"><g><path transform="scale(1.3271,1.3271)" d="M30 100c-16.569 0-30-13.431-30-30v-40c0-16.569 13.431-30 30-30h40c16.569 0 30 13.431 30 30v40c0 16.569-13.431 30-30 30z" fill="#000000" fill-rule="nonzero" stroke="none" stroke-width="1" stroke-linecap="butt" stroke-linejoin="miter" stroke-miterlimit="10" stroke-dasharray="" stroke-dashoffset="0" font-family="none" font-weight="none" font-size="none" text-anchor="none" style="mix-blend-mode: normal" data-fill-palette-color="accent"></path></g><g transform="matrix(1,0,0,1,37.93979027610084,37.93979027610084)"><svg viewBox="0 0 56.8302912 56.8302912" height="56.8302912" width="56.8302912"><g><svg xmlns="http://www.w3.org/2000/svg" viewBox="0 0.585815 19 19" x="0" y="0" height="56.8302912" width="56.8302912" class="icon-gn-0" id="gn-0"><path fill-rule="evenodd" clip-rule="evenodd" d="M0 1C0 0.448 0.448 0 1 0H8C8.552 0 9 0.448 9 1V8C9 8.552 8.552 9 8 9H1C0.448 9 0 8.552 0 8V1ZM2 7V2H7V7H2Z" transform="translate(0 0.585815)" fill="#ffffff" data-fill-palette-color="quaternary"></path><path fill-rule="evenodd" clip-rule="evenodd" d="M10 11C10 10.448 10.448 10 11 10H18C18.552 10 19 10.448 19 11V18C19 18.552 18.552 19 18 19H11C10.448 19 10 18.552 10 18V11ZM12 17V12H17V17H12Z" transform="translate(0 0.585815)" fill="#ffffff" data-fill-palette-color="quaternary"></path><path fill-rule="evenodd" clip-rule="evenodd" d="M11 0C10.448 0 10 0.448 10 1V8C10 8.552 10.448 9 11 9H18C18.552 9 19 8.552 19 8V1C19 0.448 18.552 0 18 0H11ZM12 2V7H17V2H12Z" transform="translate(0 0.585815)" fill="#ffffff" data-fill-palette-color="quaternary"></path><path fill-rule="evenodd" clip-rule="evenodd" d="M0 11C0 10.448 0.448 10 1 10H8C8.552 10 9 10.448 9 11V18C9 18.552 8.552 19 8 19H1C0.448 19 0 18.552 0 18V11ZM2 17V12H7V17H2Z" transform="translate(0 0.585815)" fill="#ffffff" data-fill-palette-color="quaternary"></path></svg></g></svg></g></svg></g></svg></g></svg></g><defs></defs></svg><rect width="395.52" height="93.99019310106729" fill="none" stroke="none" visibility="hidden"></rect></g></svg></g></svg>